<svg width="972" height="512" viewBox="0 0 972 512" fill="none" xmlns="http://www.w3.org/2000/svg">
<g clip-path="url(#clip0_4_59)">
<mask id="mask0_4_59" style="mask-type:luminance" maskUnits="userSpaceOnUse" x="0" y="0" width="512" height="512">
<path d="M512 0H0V512H512V0Z" fill="white"/>
</mask>
<g mask="url(#mask0_4_59)">
<path d="M412 0H100C44.7715 0 0 44.7715 0 100V412C0 467.228 44.7715 512 100 512H412C467.228 512 512 467.228 512 412V100C512 44.7715 467.228 0 412 0Z" fill="url(#paint0_linear_4_59)"/>
<path d="M449 378H63C59.134 378 56 381.134 56 385V394C56 397.866 59.134 401 63 401H449C452.866 401 456 397.866 456 394V385C456 381.134 452.866 378 449 378Z" fill="#F5FAF3"/>
<path d="M377 119V394C377 397.866 380.134 401 384 401H393C396.866 401 400 397.866 400 394V119C400 115.134 396.866 112 393 112H384C380.134 112 377 115.134 377 119Z" fill="#F5FAF3"/>
<path d="M248 112V401H263V112H248Z" fill="#F5FAF3"/>
<path d="M161.796 139.755L139.755 161.796C138.234 163.318 138.234 165.785 139.755 167.306C141.277 168.828 143.744 168.828 145.265 167.306L167.306 145.265C168.828 143.744 168.828 141.277 167.306 139.755C165.785 138.233 163.318 138.233 161.796 139.755Z" fill="#F5FAF3"/>
<path d="M177.735 139.755L139.755 177.735C138.234 179.257 138.233 181.724 139.755 183.245C141.277 184.767 143.744 184.767 145.265 183.245L183.245 145.266C184.767 143.744 184.767 141.277 183.245 139.755C181.723 138.234 179.256 138.234 177.735 139.755Z" fill="#F5FAF3"/>
<path d="M400 249H111V264H400V249Z" fill="#F5FAF3"/>
<path d="M393 112H118C114.134 112 111 115.134 111 119V127C111 130.866 114.134 134 118 134H393C396.866 134 400 130.866 400 127V119C400 115.134 396.866 112 393 112Z" fill="#F5FAF3"/>
<path d="M118 401C114.134 401 111 397.866 111 394V119C111 115.134 114.134 112 118 112H127C130.866 112 134 115.134 134 119V394C134 397.866 130.866 401 127 401H118Z" fill="#F5FAF3"/>
</g>
<path d="M651.5 212.438L650.312 246.938H635.875V225H627.75V212.438H651.5ZM568.562 225V134H584.312V212.562H624.625V134H640.375V225H568.562ZM724 212.562V225H675.688V212.562H724ZM680.125 134V225H664.438V134H680.125ZM717.688 172V184.25H675.688V172H717.688ZM723.688 134V146.5H675.688V134H723.688ZM796.938 172V184.438H748.625V172H796.938ZM752.5 134V225H736.812V134H752.5ZM809 134V225H793.375V134H809ZM863.25 134V225H847.688V134H863.25ZM891.812 134V146.5H819.375V134H891.812ZM938.375 191.062H914.688V178.625H938.375C942.5 178.625 945.833 177.958 948.375 176.625C950.917 175.292 952.771 173.458 953.938 171.125C955.146 168.75 955.75 166.042 955.75 163C955.75 160.125 955.146 157.438 953.938 154.938C952.771 152.396 950.917 150.354 948.375 148.812C945.833 147.271 942.5 146.5 938.375 146.5H919.5V225H903.812V134H938.375C945.417 134 951.396 135.25 956.312 137.75C961.271 140.208 965.042 143.625 967.625 148C970.208 152.333 971.5 157.292 971.5 162.875C971.5 168.75 970.208 173.792 967.625 178C965.042 182.208 961.271 185.438 956.312 187.688C951.396 189.938 945.417 191.062 938.375 191.062ZM675.875 327V332C675.875 338.875 674.979 345.042 673.188 350.5C671.396 355.958 668.833 360.604 665.5 364.438C662.208 368.271 658.25 371.208 653.625 373.25C649 375.25 643.875 376.25 638.25 376.25C632.667 376.25 627.562 375.25 622.938 373.25C618.354 371.208 614.375 368.271 611 364.438C607.625 360.604 605 355.958 603.125 350.5C601.292 345.042 600.375 338.875 600.375 332V327C600.375 320.125 601.292 313.979 603.125 308.562C604.958 303.104 607.542 298.458 610.875 294.625C614.25 290.75 618.229 287.812 622.812 285.812C627.438 283.771 632.542 282.75 638.125 282.75C643.75 282.75 648.875 283.771 653.5 285.812C658.125 287.812 662.104 290.75 665.438 294.625C668.771 298.458 671.333 303.104 673.125 308.562C674.958 313.979 675.875 320.125 675.875 327ZM660.188 332V326.875C660.188 321.792 659.688 317.312 658.688 313.438C657.729 309.521 656.292 306.25 654.375 303.625C652.5 300.958 650.188 298.958 647.438 297.625C644.688 296.25 641.583 295.562 638.125 295.562C634.667 295.562 631.583 296.25 628.875 297.625C626.167 298.958 623.854 300.958 621.938 303.625C620.062 306.25 618.625 309.521 617.625 313.438C616.625 317.312 616.125 321.792 616.125 326.875V332C616.125 337.083 616.625 341.583 617.625 345.5C618.625 349.417 620.083 352.729 622 355.438C623.958 358.104 626.292 360.125 629 361.5C631.708 362.833 634.792 363.5 638.25 363.5C641.75 363.5 644.854 362.833 647.562 361.5C650.271 360.125 652.562 358.104 654.438 355.438C656.312 352.729 657.729 349.417 658.688 345.5C659.688 341.583 660.188 337.083 660.188 332ZM707.5 284V375H691.875V284H707.5ZM762.25 284L725.25 335.875H703.062L700.938 322.25H716.562L743.062 284H762.25ZM746.25 375L716.812 333.5L726.938 321.438L765.062 375H746.25ZM844.625 327V332C844.625 338.875 843.729 345.042 841.938 350.5C840.146 355.958 837.583 360.604 834.25 364.438C830.958 368.271 827 371.208 822.375 373.25C817.75 375.25 812.625 376.25 807 376.25C801.417 376.25 796.312 375.25 791.688 373.25C787.104 371.208 783.125 368.271 779.75 364.438C776.375 360.604 773.75 355.958 771.875 350.5C770.042 345.042 769.125 338.875 769.125 332V327C769.125 320.125 770.042 313.979 771.875 308.562C773.708 303.104 776.292 298.458 779.625 294.625C783 290.75 786.979 287.812 791.562 285.812C796.188 283.771 801.292 282.75 806.875 282.75C812.5 282.75 817.625 283.771 822.25 285.812C826.875 287.812 830.854 290.75 834.188 294.625C837.521 298.458 840.083 303.104 841.875 308.562C843.708 313.979 844.625 320.125 844.625 327ZM828.938 332V326.875C828.938 321.792 828.438 317.312 827.438 313.438C826.479 309.521 825.042 306.25 823.125 303.625C821.25 300.958 818.938 298.958 816.188 297.625C813.438 296.25 810.333 295.562 806.875 295.562C803.417 295.562 800.333 296.25 797.625 297.625C794.917 298.958 792.604 300.958 790.688 303.625C788.812 306.25 787.375 309.521 786.375 313.438C785.375 317.312 784.875 321.792 784.875 326.875V332C784.875 337.083 785.375 341.583 786.375 345.5C787.375 349.417 788.833 352.729 790.75 355.438C792.708 358.104 795.042 360.125 797.75 361.5C800.458 362.833 803.542 363.5 807 363.5C810.5 363.5 813.604 362.833 816.312 361.5C819.021 360.125 821.312 358.104 823.188 355.438C825.062 352.729 826.479 349.417 827.438 345.5C828.438 341.583 828.938 337.083 828.938 332ZM920.438 322V334.438H872.125V322H920.438ZM876 284V375H860.312V284H876ZM932.5 284V375H916.875V284H932.5Z" fill="#2D78B7"/>
</g>
<defs>
<linearGradient id="paint0_linear_4_59" x1="512" y1="512" x2="0" y2="0" gradientUnits="userSpaceOnUse">
<stop stop-color="#0095CA"/>
<stop offset="1" stop-color="#4A67AB"/>
</linearGradient>
<clipPath id="clip0_4_59">
<rect width="972" height="512" fill="white"/>
</clipPath>
</defs>
</svg>
